<mxfile host="app.diagrams.net" modified="2022-08-15T12:15:20.529Z" agent="5.0 (Macintosh; Intel Mac OS X 10_15_7) AppleWebKit/537.36 (KHTML, like Gecko) Chrome/104.0.0.0 Safari/537.36" etag="lzaj7-ts72QCGyKlaEmY" version="20.0.4" type="github">
  <diagram id="J2gj59TK-olQQGAqNqcI" name="Page-1">
    <mxGraphModel dx="1168" dy="1132" grid="1" gridSize="10" guides="1" tooltips="1" connect="1" arrows="1" fold="1" page="1" pageScale="1" pageWidth="850" pageHeight="1100" math="0" shadow="0">
      <root>
        <mxCell id="0" />
        <mxCell id="1" parent="0" />
        <mxCell id="HM0n50zEbftXf4BCmgGs-4" value="" style="html=1;shadow=0;dashed=0;align=center;verticalAlign=middle;shape=mxgraph.arrows2.calloutArrow;dy=10;dx=20;notch=60;arrowHead=10;rotation=90;" parent="1" vertex="1">
          <mxGeometry x="10" y="60" width="100" height="60" as="geometry" />
        </mxCell>
        <mxCell id="HM0n50zEbftXf4BCmgGs-5" value="init" style="text;html=1;strokeColor=none;fillColor=none;align=center;verticalAlign=middle;whiteSpace=wrap;rounded=0;" parent="1" vertex="1">
          <mxGeometry x="30" y="50" width="60" height="30" as="geometry" />
        </mxCell>
        <mxCell id="HM0n50zEbftXf4BCmgGs-7" value=".kubefirst" style="strokeWidth=2;html=1;shape=mxgraph.flowchart.document2;whiteSpace=wrap;size=0.25;" parent="1" vertex="1">
          <mxGeometry x="30" y="160" width="66.67" height="40" as="geometry" />
        </mxCell>
        <mxCell id="HM0n50zEbftXf4BCmgGs-8" value=".k1" style="strokeWidth=2;html=1;shape=mxgraph.flowchart.document2;whiteSpace=wrap;size=0.25;" parent="1" vertex="1">
          <mxGeometry x="30" y="210" width="66.67" height="40" as="geometry" />
        </mxCell>
        <mxCell id="HM0n50zEbftXf4BCmgGs-9" value="4x" style="sketch=0;outlineConnect=0;fontColor=#232F3E;gradientColor=none;strokeColor=#ffffff;fillColor=#232F3E;dashed=0;verticalLabelPosition=middle;verticalAlign=bottom;align=center;html=1;whiteSpace=wrap;fontSize=10;fontStyle=1;spacing=3;shape=mxgraph.aws4.productIcon;prIcon=mxgraph.aws4.s3;" parent="1" vertex="1">
          <mxGeometry x="39.34" y="260" width="48" height="60" as="geometry" />
        </mxCell>
        <mxCell id="Tw4C9E_s_eTnJNMB4j2x-1" value="route check" style="sketch=0;outlineConnect=0;fontColor=#232F3E;gradientColor=none;strokeColor=#ffffff;fillColor=#232F3E;dashed=0;verticalLabelPosition=middle;verticalAlign=bottom;align=center;html=1;whiteSpace=wrap;fontSize=10;fontStyle=1;spacing=3;shape=mxgraph.aws4.productIcon;prIcon=mxgraph.aws4.route_53;" vertex="1" parent="1">
          <mxGeometry x="39.34" y="330" width="50.91" height="70" as="geometry" />
        </mxCell>
        <mxCell id="Tw4C9E_s_eTnJNMB4j2x-2" value="" style="html=1;shadow=0;dashed=0;align=center;verticalAlign=middle;shape=mxgraph.arrows2.calloutArrow;dy=10;dx=20;notch=60;arrowHead=10;rotation=90;" vertex="1" parent="1">
          <mxGeometry x="310" y="60" width="100" height="60" as="geometry" />
        </mxCell>
        <mxCell id="Tw4C9E_s_eTnJNMB4j2x-3" value="create" style="text;html=1;strokeColor=none;fillColor=none;align=center;verticalAlign=middle;whiteSpace=wrap;rounded=0;" vertex="1" parent="1">
          <mxGeometry x="330" y="50" width="60" height="30" as="geometry" />
        </mxCell>
        <mxCell id="Tw4C9E_s_eTnJNMB4j2x-4" value="git repo?" style="html=1;shadow=0;dashed=0;align=center;verticalAlign=middle;shape=mxgraph.arrows2.calloutDoubleArrow;dy=10;dx=20;notch=24;arrowHead=10;" vertex="1" parent="1">
          <mxGeometry x="310" y="150" width="100" height="50" as="geometry" />
        </mxCell>
        <mxCell id="Tw4C9E_s_eTnJNMB4j2x-5" value="" style="html=1;shadow=0;dashed=0;align=center;verticalAlign=middle;shape=mxgraph.arrows2.calloutArrow;dy=10;dx=20;notch=60;arrowHead=10;rotation=90;" vertex="1" parent="1">
          <mxGeometry x="220" y="170" width="100" height="60" as="geometry" />
        </mxCell>
        <mxCell id="Tw4C9E_s_eTnJNMB4j2x-6" value="create based on&amp;nbsp;&lt;br&gt;gitlab" style="text;html=1;strokeColor=none;fillColor=none;align=center;verticalAlign=middle;whiteSpace=wrap;rounded=0;" vertex="1" parent="1">
          <mxGeometry x="240" y="160" width="60" height="30" as="geometry" />
        </mxCell>
        <mxCell id="Tw4C9E_s_eTnJNMB4j2x-9" value="" style="html=1;shadow=0;dashed=0;align=center;verticalAlign=middle;shape=mxgraph.arrows2.calloutArrow;dy=10;dx=20;notch=60;arrowHead=10;rotation=90;" vertex="1" parent="1">
          <mxGeometry x="400" y="171" width="100" height="60" as="geometry" />
        </mxCell>
        <mxCell id="Tw4C9E_s_eTnJNMB4j2x-10" value="create based on&amp;nbsp;&lt;br&gt;github" style="text;html=1;strokeColor=none;fillColor=none;align=center;verticalAlign=middle;whiteSpace=wrap;rounded=0;" vertex="1" parent="1">
          <mxGeometry x="420" y="161" width="60" height="30" as="geometry" />
        </mxCell>
      </root>
    </mxGraphModel>
  </diagram>
</mxfile>
